<svg width="70" height="70" viewBox="0 0 70 70" fill="none" xmlns="http://www.w3.org/2000/svg">
<g clip-path="url(#clip0_1261_1479)">
<rect width="70" height="70" rx="8" fill="#17AB4C"/>
<g clip-path="url(#clip1_1261_1479)">
<path d="M42.0633 16.9165C42.7653 16.9165 43.3398 17.494 43.3398 18.1999V29.2116C43.3398 33.1517 40.1613 36.3346 36.2553 36.3346C32.3493 36.3346 29.1709 33.1389 29.1709 29.2116V18.1999C29.1709 17.494 29.7453 16.9165 30.4474 16.9165H37.3403C38.0424 16.9165 38.6168 17.494 38.6168 18.1999V25.6309C38.6168 25.9903 38.8849 26.3111 39.2295 26.3496C39.638 26.3881 39.9826 26.0673 39.9826 25.6694V18.1999C39.9826 17.494 40.557 16.9165 41.2591 16.9165H42.0633Z" fill="white"/>
<path d="M58.2235 16.9165C58.9256 16.9165 59.5 17.494 59.5 18.1999V25.233C59.5 29.1988 56.2705 32.4202 52.3134 32.356C48.4202 32.3047 45.3184 29.032 45.3184 25.1175V18.1999C45.3184 17.494 45.8928 16.9165 46.5948 16.9165H54.292C54.994 16.9165 55.5684 17.494 55.5684 18.1999V23.2052C55.5684 23.5903 55.8748 23.8983 56.2577 23.8983C56.6407 23.8983 56.947 23.5903 56.947 23.2052V18.1999C56.947 17.494 57.5214 16.9165 58.2235 16.9165Z" fill="white"/>
<path d="M26.3757 20.9464C25.6098 19.7015 24.5375 18.7261 23.1717 18.0202C21.8059 17.3143 20.2103 16.955 18.3977 16.955H12.3983C11.6707 16.955 11.0835 17.5582 11.0835 18.2897V32.4458C11.0835 33.1773 11.6707 33.7677 12.3983 33.7677H18.3849C20.1975 33.7677 21.7931 33.4212 23.1589 32.7153C24.5248 32.0094 25.597 31.034 26.3629 29.7763C27.1288 28.5185 27.5117 27.0554 27.5117 25.3742C27.5245 23.6672 27.1415 22.1913 26.3757 20.9464ZM17.3765 27.9923C17.3765 28.3902 17.0574 28.711 16.6617 28.711C16.266 28.711 15.9469 28.3902 15.9469 27.9923V21.7678C15.9469 21.3699 16.266 21.0491 16.6617 21.0491C16.8532 21.0491 17.0319 21.1261 17.1595 21.2544C17.2872 21.3827 17.3637 21.5624 17.3637 21.7549V27.9923H17.3765Z" fill="#FDB714"/>
<path d="M19.6101 53.0832H13.4831C12.4236 53.0832 11.5684 52.2233 11.5684 51.1581V37.5667C11.5684 36.5015 12.4236 35.6416 13.4831 35.6416H19.6101C20.6696 35.6416 21.5249 36.5015 21.5249 37.5667V51.1581C21.5249 52.2233 20.6696 53.0832 19.6101 53.0832Z" fill="#FDB714"/>
<path d="M40.2633 39.2993V45.6009C40.2633 46.6276 39.4336 47.449 38.4252 47.449H36.8296V51.2351C36.8296 52.2618 35.9999 53.0832 34.9915 53.0832H28.724C27.7028 53.0832 26.8859 52.249 26.8859 51.2351V47.449H25.2903C24.2691 47.449 23.4521 46.6148 23.4521 45.6009V39.2993C23.4521 38.2726 24.2819 37.4512 25.2903 37.4512H38.438C39.4464 37.4512 40.2633 38.2726 40.2633 39.2993Z" fill="white"/>
<path d="M59.0021 35.8341V42.1357C59.0021 43.1624 58.1724 43.9838 57.164 43.9838H55.5684V51.2351C55.5684 52.2618 54.7387 53.0832 53.7303 53.0832H47.4628C46.4416 53.0832 45.6247 52.249 45.6247 51.2351V43.9838H44.0163C42.9952 43.9838 42.1782 43.1496 42.1782 42.1357V35.8341C42.1782 34.8074 43.0079 33.986 44.0163 33.986H57.164C58.1724 33.9732 59.0021 34.8074 59.0021 35.8341Z" fill="white"/>
</g>
</g>
<defs>
<clipPath id="clip0_1261_1479">
<rect width="70" height="70" fill="white"/>
</clipPath>
<clipPath id="clip1_1261_1479">
<rect width="48.4167" height="36.1667" fill="white" transform="translate(11.0835 16.9165)"/>
</clipPath>
</defs>
</svg>
